<svg width="100" height="100" viewBox="0 0 100 100" fill="none" xmlns="http://www.w3.org/2000/svg">
<circle cx="50" cy="50" r="45" stroke="white" stroke-width="10"/>
<path fill-rule="evenodd" clip-rule="evenodd" d="M27.0005 42.8672L27 31.6171C27 30.582 27.8057 29.7421 28.7977 29.7421C29.7902 29.7421 30.5955 30.582 30.5955 31.6171C30.5955 31.6171 30.5955 35.577 30.5955 38.3496L35.1668 33.5964C39.211 29.3745 44.7045 27 50.4272 27C62.2615 27 72 37.1567 72 49.5002C72 61.8433 62.2615 72 50.4272 72C44.7045 72 39.211 69.6255 35.1668 65.4036C34.4655 64.6717 34.4659 63.4835 35.1677 62.7521C35.8694 62.0202 37.0086 62.0207 37.7099 62.7531C41.0807 66.2712 45.6583 68.25 50.4272 68.25C60.2891 68.25 68.4045 59.7861 68.4045 49.5002C68.4045 39.2139 60.2891 30.75 50.4272 30.75C45.6583 30.75 41.0807 32.7288 37.7099 36.2469L37.7076 36.2498L33.1471 40.9922H39.5841C40.5766 40.9922 41.3818 41.8321 41.3818 42.8672C41.3818 43.9019 40.5766 44.7423 39.5841 44.7423L28.7977 44.7418C28.3188 44.7418 27.8633 44.5446 27.5248 44.1911C27.1882 43.8386 27.0005 43.3649 27.0005 42.8672Z" fill="white"/>
</svg>
