<svg width="40" height="40" viewBox="0 0 40 40" fill="none" xmlns="http://www.w3.org/2000/svg">
<g clip-path="url(#clip0_120_174)">
<path d="M33.8839 7.51245C31.2558 6.32182 28.4814 5.47714 25.6316 5C25.2416 5.68988 24.8887 6.39967 24.5745 7.1264C21.5388 6.67373 18.4517 6.67373 15.416 7.1264C15.1016 6.39974 14.7488 5.68996 14.3589 5C11.5072 5.48117 8.73102 6.32785 6.10033 7.51868C0.877742 15.165 -0.53802 22.6214 0.169861 29.972C3.22834 32.2082 6.65165 33.9088 10.291 35C11.1105 33.9093 11.8356 32.7523 12.4587 31.5411C11.2752 31.1037 10.1329 30.564 9.04512 29.9284C9.33142 29.7229 9.61142 29.5112 9.88199 29.3057C13.0473 30.7788 16.5021 31.5425 20 31.5425C23.4978 31.5425 26.9526 30.7788 30.118 29.3057C30.3917 29.5268 30.6717 29.7385 30.9548 29.9284C29.8649 30.5651 28.7205 31.1058 27.535 31.5442C28.1573 32.7548 28.8825 33.9109 29.7027 35C33.3451 33.9132 36.771 32.2133 39.8301 29.9751C40.6607 21.4508 38.4112 14.0629 33.8839 7.51245ZM13.3553 25.4514C11.3827 25.4514 9.753 23.6799 9.753 21.5006C9.753 19.3213 11.3261 17.5342 13.349 17.5342C15.372 17.5342 16.9891 19.3213 16.9545 21.5006C16.9199 23.6799 15.3657 25.4514 13.3553 25.4514ZM26.6446 25.4514C24.6688 25.4514 23.0454 23.6799 23.0454 21.5006C23.0454 19.3213 24.6185 17.5342 26.6446 17.5342C28.6707 17.5342 30.2753 19.3213 30.2407 21.5006C30.206 23.6799 28.655 25.4514 26.6446 25.4514Z" fill="#5865F2"/>
</g>
<defs>
<clipPath id="clip0_120_174">
<rect width="40" height="40" fill="white"/>
</clipPath>
</defs>
</svg>
