<svg width="40" height="34" viewBox="0 0 40 34" fill="none" xmlns="http://www.w3.org/2000/svg">
<path d="M14.8809 31.512C15.7737 31.512 16.1607 31.0953 16.6666 30.6191C17.4404 29.8751 24.4999 19.5001 24.4999 19.5001L32.0952 7.46437C32.0952 7.46437 21.9735 16.5521 15.488 22.3751C15.2556 25.8154 14.8809 31.2143 14.8809 31.2143V31.512Z" fill="#2DA5D9"/>
<path d="M15.488 22.3751C21.1134 26.5244 29.8928 33.0001 29.8928 33.0001C31.5297 33.8929 32.7202 33.4465 33.1368 31.4822L38.9999 3.86317C39.5952 1.45246 38.0773 0.381032 36.4999 1.09532L2.09519 14.3691C-0.256004 15.3215 -0.226243 16.631 1.67852 17.1965L10.5178 19.9644L30.9642 7.07746C31.9166 6.48222 32.8095 6.8096 32.0952 7.46437C32.0952 7.46437 21.9735 16.5521 15.488 22.3751Z" fill="#2DA5D9"/>
</svg>
